<?xml version="1.0" encoding="UTF-8"?>
<svg id="Layer_1" xmlns="http://www.w3.org/2000/svg" version="1.1" viewBox="0 0 500 500">
  <!-- Generator: Adobe Illustrator 29.4.0, SVG Export Plug-In . SVG Version: 2.1.0 Build 152)  -->
  <defs>
    <style>
      .st0 {
        fill: #000186;
      }

      .st1 {
        fill: #02024f;
      }
    </style>
  </defs>
  <path class="st0" d="M232.29,146.74v160.13c0,4.65,12.22,12.28,17.1,12.46,5.41.2,18.32-7.38,18.32-12.46v-160.13c3.46-.89,2.47.81,3.38,1.88,41.22,48.02,77.31,103.16,118.32,151.68,14.33,14.22,25.5,14.1,43.14,18.92,2.54.7,4.09-1.06,3.41,3.16h-72.32c-.62-4.64,6.61-4.16,10.27-6.7,6.61-4.59,9.62-14.47,5.6-21.73l-74.91-95.55v105.53c0,7.64,10.17,12.65,15.93,15.14,2.14.92,4.02-.95,3.26,3.31h-150.54c-.81-4.51,7.16-3.47,10.62-4.88,4.25-1.73,11.52-9.21,11.52-13.57v-104.05c-3.46-.89-2.47.81-3.38,1.88-24.93,29.04-47.23,62.43-71.49,92.23-4.15,8.24-1.27,17.53,6.47,22.27,3.37,2.06,10.22,1.62,9.38,6.13h-72.32c-.67-4.22.87-2.46,3.41-3.16,19.79-5.41,29.11-4.77,44.77-20.98,40.24-47.96,76.06-102.3,116.68-149.62.91-1.06-.07-2.77,3.38-1.88Z"/>
  <g>
    <path class="st1" d="M65.59,348.46h-6.93l-1.3,1.98h-3.93l6.84-8.95h3.71l6.84,8.95h-3.93l-1.3-1.98ZM64.29,346.48l-1.99-3.02h-.33l-1.99,3.02h4.32Z"/>
    <path class="st1" d="M73.85,341.49h3.64l5.96,7.17h.36l5.95-7.17h3.66v8.95h-2.97v-5.51l-4.68,5.51h-4.27l-4.67-5.51v5.51h-2.98v-8.95Z"/>
    <path class="st1" d="M108.99,348.46h-6.93l-1.3,1.98h-3.93l6.84-8.95h3.71l6.84,8.95h-3.93l-1.3-1.98ZM107.69,346.48l-1.99-3.02h-.33l-1.99,3.02h4.32Z"/>
    <path class="st1" d="M125.6,349.41l.18-2.21c.81.55,1.79.97,2.93,1.28,1.14.31,2.67.46,4.58.46,2.37,0,3.55-.4,3.55-1.18,0-1.07-3.62-.55-6.74-.86-2.3-.18-4.37-.86-4.36-2.85,0-1.96,2.16-2.94,6.5-2.94,1.47,0,2.74.06,3.82.18s2.24.33,3.44.65v2.35h-.87c-.5-.42-1.39-.75-2.66-.97-1.27-.22-2.43-.33-3.47-.33-1.39,0-2.37.08-2.89.24-.52.17-.79.41-.78.75,0,1.18,3.68.69,6.84.96,2.37.15,4.45.81,4.45,2.8,0,1.5-1.19,2.42-3.24,2.79-1.01.19-2.3.29-3.87.29-3.29,0-5.92-.56-7.42-1.42Z"/>
    <path class="st1" d="M152.86,346.91v3.53h-2.97v-3.52l-6.93-5.43h3.94l4.48,3.61,4.49-3.61h3.93l-6.93,5.42Z"/>
    <path class="st1" d="M161.54,349.41l.18-2.21c.81.55,1.79.97,2.93,1.28,1.14.31,2.67.46,4.58.46,2.37,0,3.55-.4,3.55-1.18,0-1.07-3.62-.55-6.74-.86-2.3-.18-4.37-.86-4.36-2.85,0-1.96,2.16-2.94,6.5-2.94,1.47,0,2.74.06,3.82.18s2.24.33,3.44.65v2.35h-.87c-.5-.42-1.39-.75-2.66-.97-1.27-.22-2.43-.33-3.47-.33-1.39,0-2.37.08-2.89.24-.52.17-.79.41-.78.75,0,1.18,3.68.69,6.84.96,2.37.15,4.45.81,4.45,2.8,0,1.5-1.19,2.42-3.24,2.79-1.01.19-2.3.29-3.87.29-3.29,0-5.92-.56-7.42-1.42Z"/>
    <path class="st1" d="M194.25,343.47h-6.16v6.97h-3v-6.97h-6.18v-1.98h15.34v1.98Z"/>
    <path class="st1" d="M197.67,341.49h13.29v1.98h-10.31v1.53h8.52v1.79h-8.52v1.66h10.31v1.98h-13.29v-8.95Z"/>
    <path class="st1" d="M214.75,341.49h3.64l5.96,7.17h.36l5.95-7.17h3.66v8.95h-2.97v-5.51l-4.68,5.51h-4.27l-4.67-5.51v5.51h-2.98v-8.95Z"/>
    <path class="st1" d="M238.69,349.41l.18-2.21c.81.55,1.79.97,2.93,1.28,1.14.31,2.67.46,4.58.46,2.37,0,3.55-.4,3.55-1.18,0-1.07-3.62-.55-6.74-.86-2.3-.18-4.37-.86-4.36-2.85,0-1.96,2.16-2.94,6.5-2.94,1.47,0,2.74.06,3.82.18s2.24.33,3.44.65v2.35h-.87c-.5-.42-1.39-.75-2.66-.97-1.27-.22-2.43-.33-3.47-.33-1.39,0-2.37.08-2.89.24-.52.17-.79.41-.78.75,0,1.18,3.68.69,6.84.96,2.37.15,4.45.81,4.45,2.8,0,1.5-1.19,2.42-3.24,2.79-1.01.19-2.3.29-3.87.29-3.29,0-5.92-.56-7.42-1.42Z"/>
    <path class="st1" d="M267.69,350.26c-1.24-.41-2.07-1.28-2.07-2.49,0-.45.19-.87.56-1.27.38-.4.88-.68,1.48-.84-1.09-.4-1.64-1.06-1.64-2s.79-1.61,2.07-1.98c1.28-.4,2.8-.58,4.54-.58.98,0,1.87.06,2.88.22.51.08.97.19,1.38.35,1.25.47,2.2,1.18,2.2,2.47h-2.62c0-1.01-1.28-1.52-3.84-1.53-2.34,0-3.5.37-3.5,1.11,0,.42.36.61.84.75.31.06.84.1,1.2.12h.67v1.92c-1.47,0-3.12.29-3.12,1.36,0,.4.28.69.86.88.58.19,1.27.29,2.05.29,3.68,0,5.5-.73,5.5-2.37h-4.23v-1.79h7.76v1.79h-1.15v3.77h-2.38v-.77c-1.29.88-3.2,1.15-5.77,1.15-1.28,0-2.43-.15-3.67-.56Z"/>
    <path class="st1" d="M292.85,349.41l.18-2.21c.81.55,1.79.97,2.93,1.28,1.14.31,2.67.46,4.58.46,2.37,0,3.55-.4,3.55-1.18,0-1.07-3.62-.55-6.74-.86-2.3-.18-4.37-.86-4.36-2.85,0-1.96,2.16-2.94,6.5-2.94,1.47,0,2.74.06,3.82.18s2.24.33,3.44.65v2.35h-.87c-.5-.42-1.39-.75-2.66-.97-1.27-.22-2.43-.33-3.46-.33-1.39,0-2.37.08-2.89.24s-.79.41-.78.75c0,1.18,3.68.69,6.84.96,2.37.15,4.45.81,4.45,2.8,0,1.5-1.19,2.42-3.24,2.79-1.01.19-2.3.29-3.87.29-3.29,0-5.92-.56-7.42-1.42Z"/>
    <path class="st1" d="M319.72,350.83c-2.49,0-4.55-.45-6.15-1.36s-2.39-2.08-2.39-3.5.79-2.58,2.39-3.49c1.6-.91,3.66-1.37,6.15-1.37s4.54.46,6.14,1.37c1.6.91,2.4,2.07,2.4,3.49s-.81,2.6-2.4,3.5-3.64,1.36-6.14,1.36ZM323.49,348.04c1.04-.54,1.55-1.25,1.53-2.13.01-.86-.43-1.54-1.33-2.05-.88-.51-2.12-.77-3.71-.77-1.67,0-3.02.27-4.04.81-1.01.54-1.52,1.25-1.52,2.14,0,1.73,1.82,2.81,5.03,2.81,1.67,0,3.02-.27,4.04-.81Z"/>
    <path class="st1" d="M345.22,348.46v1.98h-13.09v-8.95h3v6.97h10.09Z"/>
    <path class="st1" d="M349.65,349.74c-1.1-.7-1.65-1.92-1.65-3.64v-4.6h2.98v4.67c-.01,1.02.4,1.74,1.12,2.13.73.37,1.59.52,2.75.52,2.6,0,3.9-.88,3.9-2.66v-4.67h2.97v4.6c0,3.31-2.21,4.71-6.87,4.71-2.37,0-4.1-.36-5.2-1.06Z"/>
    <path class="st1" d="M380.09,343.47h-6.16v6.97h-3v-6.97h-6.18v-1.98h15.34v1.98Z"/>
    <path class="st1" d="M383.51,341.49h2.98v8.95h-2.98v-8.95Z"/>
    <path class="st1" d="M398.89,350.83c-2.49,0-4.55-.45-6.15-1.36s-2.39-2.08-2.39-3.5.79-2.58,2.39-3.49c1.6-.91,3.66-1.37,6.15-1.37s4.54.46,6.14,1.37c1.6.91,2.4,2.07,2.4,3.49s-.81,2.6-2.4,3.5-3.64,1.36-6.14,1.36ZM402.67,348.04c1.04-.54,1.55-1.25,1.53-2.13.01-.86-.43-1.54-1.33-2.05-.88-.51-2.12-.77-3.71-.77-1.67,0-3.02.27-4.04.81-1.01.54-1.52,1.25-1.52,2.14,0,1.73,1.82,2.81,5.03,2.81,1.67,0,3.02-.27,4.04-.81Z"/>
    <path class="st1" d="M410.91,341.49h3.39l9.63,6.29v-6.29h2.97v8.95h-3.35l-9.65-6.05v6.05h-2.98v-8.95Z"/>
    <path class="st1" d="M430.89,349.41l.18-2.21c.81.55,1.79.97,2.93,1.28,1.14.31,2.67.46,4.58.46,2.37,0,3.55-.4,3.55-1.18,0-1.07-3.62-.55-6.74-.86-2.3-.18-4.37-.86-4.36-2.85,0-1.96,2.16-2.94,6.5-2.94,1.47,0,2.74.06,3.82.18s2.24.33,3.44.65v2.35h-.87c-.5-.42-1.39-.75-2.66-.97-1.27-.22-2.43-.33-3.46-.33-1.39,0-2.37.08-2.89.24s-.79.41-.78.75c0,1.18,3.68.69,6.84.96,2.37.15,4.45.81,4.45,2.8,0,1.5-1.19,2.42-3.24,2.79-1.01.19-2.3.29-3.87.29-3.29,0-5.92-.56-7.42-1.42Z"/>
  </g>
</svg>